<svg width="16" height="16" viewBox="0 0 16 16" fill="none" xmlns="http://www.w3.org/2000/svg">
<g id="SVG" clip-path="url(#clip0_8_1905)">
<path id="a" d="M12.968 0C13.262 0 13.5 0.242 13.5 0.541V15.46C13.5 15.76 13.262 16.001 12.968 16.001H3.03202C2.88977 15.9997 2.75385 15.942 2.65411 15.8405C2.55437 15.7391 2.49895 15.6023 2.50002 15.46V0.54C2.50002 0.242 2.73802 0 3.03202 0H12.968ZM8.00002 13.5C7.79332 13.5018 7.59581 13.5857 7.45087 13.733C7.30593 13.8804 7.22542 14.0793 7.22702 14.286C7.22542 14.4927 7.30593 14.6916 7.45087 14.839C7.59581 14.9863 7.79332 15.0702 8.00002 15.072C8.20671 15.0702 8.40422 14.9863 8.54916 14.839C8.6941 14.6916 8.77461 14.4927 8.77302 14.286C8.77461 14.0793 8.6941 13.8804 8.54916 13.733C8.40422 13.5857 8.20671 13.5018 8.00002 13.5ZM12.058 1.677H3.94302V12.572H12.058V1.677Z" fill="#2A2E3B"/>
</g>
<defs>
<clipPath id="clip0_8_1905">
<rect width="16" height="16" fill="white"/>
</clipPath>
</defs>
</svg>
